<?xml version="1.0" encoding="UTF-8"?>
<svg xmlns="http://www.w3.org/2000/svg" version="1.1" xmlns:xlink="http://www.w3.org/1999/xlink" viewBox="0 0 56.77 32">
  <!-- Generator: Adobe Illustrator 30.5.1, SVG Export Plug-In . SVG Version: 2.1.4 Build 3)  -->
  <defs>
    <style>
      .st0 {
        fill: url(#linear-gradient2);
      }

      .st1 {
        fill: url(#linear-gradient10);
      }

      .st2 {
        fill: url(#linear-gradient9);
      }

      .st2, .st3, .st4, .st5, .st6 {
        mix-blend-mode: multiply;
      }

      .st2, .st3, .st4, .st6 {
        opacity: .3;
      }

      .st7 {
        fill: #fff;
      }

      .st8 {
        fill: url(#linear-gradient1);
      }

      .st3 {
        fill: url(#linear-gradient6);
      }

      .st9 {
        isolation: isolate;
      }

      .st4 {
        fill: url(#linear-gradient5);
      }

      .st5 {
        fill: url(#linear-gradient7);
        opacity: .78;
      }

      .st10 {
        fill: url(#linear-gradient4);
      }

      .st11 {
        fill: url(#linear-gradient3);
      }

      .st6 {
        fill: url(#linear-gradient8);
      }

      .st12 {
        fill: url(#linear-gradient);
      }

      .st13 {
        fill: #645ae9;
      }

      .st14 {
        fill: #8e54e9;
        font-family: BMashhadBold, 'B Mashhad';
        font-size: 18px;
      }
    </style>
    <linearGradient id="linear-gradient" x1="29.89" y1="34.45" x2="59.99" y2="1.18" gradientUnits="userSpaceOnUse">
      <stop offset="0" stop-color="#8e54e9"/>
      <stop offset=".59" stop-color="#6567e7"/>
      <stop offset="1" stop-color="#4776e6"/>
    </linearGradient>
    <linearGradient id="linear-gradient1" x1="37.62" y1="27.56" x2="54.82" y2="14.89" gradientUnits="userSpaceOnUse">
      <stop offset="0" stop-color="#4776e6"/>
      <stop offset=".48" stop-color="#479ee6"/>
      <stop offset="1" stop-color="#47cfe6"/>
    </linearGradient>
    <linearGradient id="linear-gradient2" x1="38.44" y1="28.67" x2="55.64" y2="15.99" xlink:href="#linear-gradient1"/>
    <linearGradient id="linear-gradient3" x1="57.45" y1="1.48" x2="40.31" y2="18.17" gradientUnits="userSpaceOnUse">
      <stop offset="0" stop-color="#4776e6"/>
      <stop offset=".18" stop-color="#477be6"/>
      <stop offset=".42" stop-color="#478ce6"/>
      <stop offset=".7" stop-color="#47a7e6"/>
      <stop offset=".99" stop-color="#47cde6"/>
      <stop offset="1" stop-color="#47cfe6"/>
    </linearGradient>
    <linearGradient id="linear-gradient4" x1="53.5" y1="12.04" x2="38" y2="24.63" xlink:href="#linear-gradient"/>
    <linearGradient id="linear-gradient5" x1="39.89" y1="24.46" x2="54.57" y2="14.39" gradientUnits="userSpaceOnUse">
      <stop offset="0" stop-color="#4776e6"/>
      <stop offset=".1" stop-color="#477be6" stop-opacity=".94"/>
      <stop offset=".29" stop-color="#478ae6" stop-opacity=".77"/>
      <stop offset=".56" stop-color="#47a1e6" stop-opacity=".51"/>
      <stop offset=".88" stop-color="#47c2e6" stop-opacity=".14"/>
      <stop offset="1" stop-color="#47cfe6" stop-opacity="0"/>
    </linearGradient>
    <linearGradient id="linear-gradient6" x1="44.49" y1="19.49" x2="45.25" y2="6.25" xlink:href="#linear-gradient5"/>
    <linearGradient id="linear-gradient7" x1="37.03" y1="30.38" x2="54.4" y2="30.38" xlink:href="#linear-gradient5"/>
    <linearGradient id="linear-gradient8" x1="50.1" y1="20.38" x2="52" y2="18.86" xlink:href="#linear-gradient5"/>
    <linearGradient id="linear-gradient9" x1="57.9" y1="2.16" x2="45.64" y2="15.28" xlink:href="#linear-gradient5"/>
    <linearGradient id="linear-gradient10" x1="45.38" y1="9.9" x2="57.1" y2="2.23" xlink:href="#linear-gradient5"/>
  </defs>
  <g class="st9">
    <g id="Layer_1">
      <g>
        <path class="st12" d="M54.89,9.88s-.01.01-.02.02c0,0,.64-.43,1.42-1.08-.89,3.96-3.26,8.27-8.97,10.66-3.63,1.52-7.44,2.21-9.31,3.27-3.18,1.81-3.63,4.27-3.14,6.54,0,0,0,0-.01-.02-.18-.29-2.01-3.47.75-7.64,1.14-1.72,5.47-5.14,12.59-4.84-.08-.03-.42-.2-1.63-.55-.3-.09-.62-.17-.94-.24,1.38-.58,2.72-1.28,3.92-2.27,6.56-5.37,6.55-11.28,6.8-13.75,0,0,.58,2.43.39,5.65-.1,1.58-.74,3.09-1.84,4.23Z"/>
        <path class="st8" d="M54.88,14.21s0,0,0,0c-.03.12-.25,1.24-1,2.73-.65,1.3-1.75,2.33-3.11,2.83,0,0-.01,0-.02,0h.02c.11-.02.74-.12,1.52-.31-.03.04-.06.07-.08.11-3.2,4.47-8.37,4.08-8.4,4.08,0,0,1.57.39,3.55-.08-2.31,1.24-4.35,1.76-6.78,2.09h0s-.55-.48-.87-1.3c-.16-.42-.27-.94-.23-1.55h0c.82-.33,1.87-.64,3.03-.99,1.61-.48,3.43-1.03,5.23-1.79,3.31-1.39,5.51-3.74,7.15-5.83Z"/>
        <path class="st0" d="M40.69,27.94c-.39.51-1.26,1.77-1.39,1.94.05-.28.23-1.16.49-1.91.05-.13.08-.23.11-.31.01,0,.02,0,.04,0,.17,0,.31-.13.31-.3,0-.17-.13-.31-.3-.31-.17,0-.31.13-.31.3,0,.11.05.2.13.26-.25.7-.43,1.88-.49,2.26-.04-.31-.21-1.71-.28-2.31-.02-.19.04-.37.15-.52l1.59-1.92.02.52h0s.08,1.79.08,1.79c.01.18-.04.36-.15.51Z"/>
        <path class="st13" d="M54.4,31.6c-.82-1.63-2.59-2.47-4.35-2.44-1.77.04-3.46.68-5.12,1.28-2.09.73-4.59,1.89-6.85,1.46-.35-.07-.71-.18-1.05-.33-1-.44-1.87-1.21-2.16-2.26.72,1.12,2.05,1.69,3.34,1.79,1.3.12,2.54-.31,3.79-.73,2.6-.89,5.24-2.18,8.09-1.96,1.12.08,2.25.52,3.09,1.26-.17-.18-.35-.36-.53-.53-.94-.88-1.88-1.29-3.18-1.34-3.11-.13-5.94,1.39-8.82,2.32,2.14-1.28,4.37-2.51,6.92-2.87,2.05-.28,3.99.06,5.3,1.7.36.43,1.23,1.79,1.51,2.61,0,.03.02.04.02.05Z"/>
        <path class="st11" d="M56.34,0s0,0,0,.01c0,.05-.01.1-.01.14,0,.02,0,.04,0,.05,0,.02,0,.04,0,.06-.27,2.61-.85,7.52-7.47,12.7-2.37,1.85-5.37,2.9-8.17,4.06-.41.17-.81.34-1.21.51.2-.68.46-1.29.75-1.87,1.15-2.25,3.11-3.99,5.45-4.95,1.28-.53,2.93-1.09,4.38-1.24.08,0,.13-.01.15-.01,0,0,0,0,0,0h0c-.08-.01-1.46-.17-2.95-.12.59-.33,1.15-.65,1.68-.97C54.5,5.01,56.28.17,56.34,0h0Z"/>
        <path class="st7" d="M55.98,9.82c-1.09,3.79-3.4,6.82-8.97,9.3-3.54,1.58-7.26,2.29-9.08,3.39-3.1,1.88-3.57,4.27-3.1,6.63,0,0,0,.02,0,0-.2-.56-2.28-7.02,7.09-9.41,11.26-2.88,12.67-6.36,14.06-9.91Z"/>
        <path class="st10" d="M56.29,8.82c-.89,3.96-3.26,8.27-8.97,10.66-3.63,1.52-7.44,2.21-9.31,3.27-3.18,1.81-3.63,4.27-3.14,6.54,0,0,0,0-.01-.02-.2-.54-2.45-7.03,7.15-9.34,11.55-2.78,12.88-7.34,14.28-11.12Z"/>
        <path class="st4" d="M54.88,14.21s0,0,0,0c-2.57,5.75-10.53,7.74-12.93,8.48-2.37.72-1.55,2.76-1.53,2.82-.03-.03-.44-.45-.71-1.15-.17-.42-.27-.94-.23-1.55h0c.82-.33,1.87-.64,3.03-.99,1.61-.48,3.43-1.03,5.23-1.79,3.31-1.39,5.51-3.74,7.15-5.83Z"/>
        <path class="st3" d="M50.19,9.47c-7.93,1.36-9.51,7.55-9.51,7.55-.41.17-.81.34-1.21.51.2-.68.46-1.29.75-1.87,1.15-2.25,3.11-3.99,5.45-4.95,1.28-.53,2.93-1.09,4.38-1.24.08,0,.13-.01.15-.01Z"/>
        <path class="st5" d="M54.4,31.6c-.82-1.63-2.59-2.47-4.35-2.44-1.77.04-3.46.68-5.12,1.28-2.09.73-4.59,1.89-6.85,1.46-.35-.07-.71-.18-1.05-.33,2.74.88,5.29-.52,8.36-1.7,1.02-.39,2.07-.83,3.42-1.04,3.8-.61,5.42,2.29,5.58,2.72,0,.03.02.04.02.05Z"/>
        <path class="st6" d="M52.29,19.47c-.64.42-3.17.84-3.17.84l1.63-.54h.02c.11-.02.74-.12,1.52-.31Z"/>
        <path class="st2" d="M45.62,16.02c1.38-.58,2.72-1.28,3.92-2.27,6.56-5.37,6.55-11.28,6.8-13.75-.06,14.03-10.72,16.02-10.72,16.02Z"/>
        <path class="st1" d="M56.34,0s0,0,0,.01c0,.05-.01.1-.01.14,0,.02,0,.04,0,.05,0,.02,0,.04,0,.06-1.82,6.01-6.01,9.12-6.12,9.2-.08-.01-1.46-.17-2.95-.12.59-.33,1.15-.65,1.68-.97C54.5,5.01,56.28.17,56.34,0h0Z"/>
      </g>
      <text class="st14" transform="translate(.13 20.32)"><tspan x="0" y="0">میزکار</tspan></text>
    </g>
  </g>
</svg>