<?xml version="1.0" encoding="UTF-8"?>
<svg xmlns="http://www.w3.org/2000/svg" version="1.1" xmlns:xlink="http://www.w3.org/1999/xlink" viewBox="0 0 21.53 30.39">
  <!-- Generator: Adobe Illustrator 30.5.1, SVG Export Plug-In . SVG Version: 2.1.4 Build 3)  -->
  <defs>
    <style>
      .st0 {
        fill: url(#linear-gradient2);
      }

      .st1 {
        fill: url(#linear-gradient10);
      }

      .st2 {
        fill: url(#linear-gradient9);
      }

      .st2, .st3, .st4, .st5, .st6 {
        mix-blend-mode: multiply;
      }

      .st2, .st3, .st4, .st6 {
        opacity: .3;
      }

      .st7 {
        fill: #fff;
      }

      .st8 {
        fill: url(#linear-gradient1);
      }

      .st3 {
        fill: url(#linear-gradient6);
      }

      .st9 {
        isolation: isolate;
      }

      .st4 {
        fill: url(#linear-gradient5);
      }

      .st5 {
        fill: url(#linear-gradient7);
        opacity: .78;
      }

      .st10 {
        fill: url(#linear-gradient4);
      }

      .st11 {
        fill: url(#linear-gradient3);
      }

      .st6 {
        fill: url(#linear-gradient8);
      }

      .st12 {
        fill: url(#linear-gradient);
      }

      .st13 {
        fill: #645ae9;
      }
    </style>
    <linearGradient id="linear-gradient" x1="-3.99" y1="32.71" x2="24.59" y2="1.12" gradientUnits="userSpaceOnUse">
      <stop offset="0" stop-color="#8e54e9"/>
      <stop offset=".59" stop-color="#6567e7"/>
      <stop offset="1" stop-color="#4776e6"/>
    </linearGradient>
    <linearGradient id="linear-gradient1" x1="3.35" y1="26.17" x2="19.68" y2="14.13" gradientUnits="userSpaceOnUse">
      <stop offset="0" stop-color="#4776e6"/>
      <stop offset=".48" stop-color="#479ee6"/>
      <stop offset="1" stop-color="#47cfe6"/>
    </linearGradient>
    <linearGradient id="linear-gradient2" x1="4.13" y1="27.22" x2="20.46" y2="15.19" xlink:href="#linear-gradient1"/>
    <linearGradient id="linear-gradient3" x1="22.18" y1="1.41" x2="5.9" y2="17.25" gradientUnits="userSpaceOnUse">
      <stop offset="0" stop-color="#4776e6"/>
      <stop offset=".18" stop-color="#477be6"/>
      <stop offset=".42" stop-color="#478ce6"/>
      <stop offset=".7" stop-color="#47a7e6"/>
      <stop offset=".99" stop-color="#47cde6"/>
      <stop offset="1" stop-color="#47cfe6"/>
    </linearGradient>
    <linearGradient id="linear-gradient4" x1="18.43" y1="11.43" x2="3.71" y2="23.39" xlink:href="#linear-gradient"/>
    <linearGradient id="linear-gradient5" x1="5.51" y1="23.22" x2="19.45" y2="13.66" gradientUnits="userSpaceOnUse">
      <stop offset="0" stop-color="#4776e6"/>
      <stop offset=".1" stop-color="#477be6" stop-opacity=".94"/>
      <stop offset=".29" stop-color="#478ae6" stop-opacity=".77"/>
      <stop offset=".56" stop-color="#47a1e6" stop-opacity=".51"/>
      <stop offset=".88" stop-color="#47c2e6" stop-opacity=".14"/>
      <stop offset="1" stop-color="#47cfe6" stop-opacity="0"/>
    </linearGradient>
    <linearGradient id="linear-gradient6" x1="9.88" y1="18.51" x2="10.59" y2="5.93" xlink:href="#linear-gradient5"/>
    <linearGradient id="linear-gradient7" x1="2.79" y1="28.84" x2="19.28" y2="28.84" xlink:href="#linear-gradient5"/>
    <linearGradient id="linear-gradient8" x1="15.21" y1="19.35" x2="17" y2="17.91" xlink:href="#linear-gradient5"/>
    <linearGradient id="linear-gradient9" x1="22.61" y1="2.05" x2="10.97" y2="14.51" xlink:href="#linear-gradient5"/>
    <linearGradient id="linear-gradient10" x1="10.72" y1="9.4" x2="21.84" y2="2.12" xlink:href="#linear-gradient5"/>
  </defs>
  <g class="st9">
    <g id="Layer_1">
      <g>
        <path class="st12" d="M19.75,9.38s-.01.01-.02.02c0,0,.61-.41,1.34-1.02-.85,3.76-3.09,7.85-8.52,10.12-3.45,1.45-7.07,2.1-8.84,3.11-3.02,1.72-3.44,4.06-2.99,6.21,0,0,0,0-.01-.02-.17-.28-1.91-3.3.71-7.25,1.08-1.63,5.2-4.88,11.95-4.59-.07-.03-.4-.19-1.54-.52-.29-.08-.59-.16-.89-.23,1.31-.55,2.58-1.22,3.72-2.15,6.23-5.1,6.22-10.71,6.45-13.06,0,0,.55,2.31.37,5.37-.09,1.5-.7,2.93-1.75,4.01Z"/>
        <path class="st8" d="M19.74,13.49s0,0,0,0c-.02.12-.24,1.17-.95,2.59-.61,1.23-1.66,2.22-2.96,2.68,0,0-.01,0-.02,0h.02c.11-.02.71-.11,1.45-.29-.02.03-.05.06-.08.1-3.04,4.25-7.95,3.88-7.97,3.88,0,0,1.49.37,3.37-.08-2.2,1.17-4.13,1.67-6.44,1.99h0s-.52-.46-.82-1.24c-.16-.4-.26-.89-.22-1.47h0c.78-.31,1.77-.61,2.87-.94,1.53-.46,3.26-.98,4.97-1.7,3.15-1.32,5.23-3.55,6.79-5.54Z"/>
        <path class="st0" d="M6.27,26.54c-.37.49-1.2,1.68-1.32,1.84.05-.27.22-1.1.47-1.82.04-.12.08-.22.11-.29.01,0,.02,0,.03,0,.16,0,.29-.12.3-.28,0-.16-.12-.29-.28-.29-.16,0-.29.12-.29.28,0,.1.05.19.12.24-.24.67-.41,1.79-.47,2.15-.04-.3-.2-1.62-.27-2.2-.02-.18.03-.35.15-.49l1.51-1.82.02.49h0s.07,1.7.07,1.7c.01.17-.04.34-.15.48Z"/>
        <path class="st13" d="M19.28,30.01c-.78-1.55-2.46-2.35-4.13-2.31-1.68.04-3.29.64-4.86,1.21-1.99.7-4.35,1.79-6.5,1.39-.33-.07-.67-.17-1-.31-.95-.42-1.78-1.15-2.05-2.15.69,1.07,1.95,1.6,3.17,1.7,1.24.11,2.41-.3,3.6-.7,2.47-.85,4.98-2.07,7.68-1.86,1.07.08,2.14.49,2.94,1.2-.16-.17-.33-.34-.5-.5-.89-.84-1.78-1.22-3.02-1.27-2.95-.12-5.64,1.32-8.37,2.21,2.03-1.22,4.15-2.38,6.57-2.73,1.94-.27,3.79.06,5.03,1.62.35.41,1.16,1.7,1.44,2.48,0,.02.01.04.02.04Z"/>
        <path class="st11" d="M21.13,0s0,0,0,0c0,.04,0,.09-.01.14,0,.02,0,.03,0,.05,0,.02,0,.04,0,.06-.25,2.48-.8,7.14-7.09,12.06-2.25,1.76-5.1,2.76-7.76,3.85-.39.16-.77.32-1.15.49.19-.64.43-1.23.71-1.77,1.09-2.14,2.95-3.78,5.17-4.7,1.22-.5,2.78-1.04,4.16-1.18.08,0,.12-.01.14-.01,0,0,0,0,0,0h0c-.08-.01-1.39-.16-2.8-.11.56-.31,1.09-.62,1.6-.92C19.38,4.75,21.07.16,21.13,0h0Z"/>
        <path class="st7" d="M20.78,9.33c-1.04,3.6-3.23,6.47-8.52,8.83-3.36,1.5-6.9,2.17-8.62,3.22-2.94,1.79-3.39,4.06-2.94,6.29,0,0,0,.01,0,0-.19-.53-2.16-6.67,6.73-8.94,10.7-2.73,12.03-6.04,13.35-9.41Z"/>
        <path class="st10" d="M21.08,8.37c-.85,3.76-3.09,7.85-8.52,10.12-3.45,1.45-7.07,2.1-8.84,3.11-3.02,1.72-3.44,4.06-2.99,6.21,0,0,0,0-.01-.02-.19-.51-2.32-6.67,6.79-8.87,10.96-2.64,12.23-6.97,13.56-10.56Z"/>
        <path class="st4" d="M19.74,13.49s0,0,0,0c-2.44,5.46-10,7.35-12.28,8.05-2.25.69-1.48,2.62-1.45,2.68-.03-.02-.42-.43-.67-1.09-.16-.4-.26-.89-.22-1.47h0c.78-.31,1.77-.61,2.87-.94,1.53-.46,3.26-.98,4.97-1.7,3.15-1.32,5.23-3.55,6.79-5.54Z"/>
        <path class="st3" d="M15.29,8.99c-7.53,1.3-9.03,7.17-9.03,7.17-.39.16-.77.32-1.15.49.19-.64.43-1.23.71-1.77,1.09-2.14,2.95-3.78,5.17-4.7,1.22-.5,2.78-1.04,4.16-1.18.08,0,.12-.01.14-.01Z"/>
        <path class="st5" d="M19.28,30.01c-.78-1.55-2.46-2.35-4.13-2.31-1.68.04-3.29.64-4.86,1.21-1.99.7-4.35,1.79-6.5,1.39-.33-.07-.67-.17-1-.31,2.6.84,5.02-.49,7.93-1.61.97-.37,1.96-.78,3.25-.99,3.6-.58,5.14,2.18,5.3,2.58,0,.02.01.04.02.04Z"/>
        <path class="st6" d="M17.28,18.49c-.61.4-3.01.8-3.01.8l1.54-.51h.02c.11-.02.71-.11,1.45-.29Z"/>
        <path class="st2" d="M10.95,15.21c1.31-.55,2.58-1.22,3.72-2.15,6.23-5.1,6.22-10.71,6.45-13.06-.05,13.32-10.18,15.21-10.18,15.21Z"/>
        <path class="st1" d="M21.13,0s0,0,0,0c0,.04,0,.09-.01.14,0,.02,0,.03,0,.05,0,.02,0,.04,0,.06-1.73,5.7-5.71,8.66-5.81,8.74-.08-.01-1.39-.16-2.8-.11.56-.31,1.09-.62,1.6-.92C19.38,4.75,21.07.16,21.13,0h0Z"/>
      </g>
    </g>
  </g>
</svg>